<?xml version="1.0" standalone="no"?>
<!DOCTYPE svg PUBLIC "-//W3C//DTD SVG 20010904//EN"
 "http://www.w3.org/TR/2001/REC-SVG-20010904/DTD/svg10.dtd">
<svg version="1.0" xmlns="http://www.w3.org/2000/svg"
 width="260.000000pt" height="260.000000pt" viewBox="0 0 260.000000 260.000000"
 preserveAspectRatio="xMidYMid meet">
<metadata>
Created by potrace 1.14, written by Peter Selinger 2001-2017
</metadata>
<g transform="translate(0.000000,260.000000) scale(0.100000,-0.100000)"
fill="#000000" stroke="none">
<path d="M817 2593 c-34 -3 -51 -10 -60 -24 -6 -10 -17 -19 -24 -19 -7 0 -13
-5 -13 -11 0 -7 -9 -9 -21 -6 -12 3 -19 3 -16 1 9 -9 -44 -55 -55 -48 -7 4 -8
2 -4 -4 4 -6 -1 -23 -10 -36 -22 -35 -23 -182 -1 -276 2 -8 7 -37 12 -65 4
-27 12 -60 16 -72 6 -16 5 -23 -4 -23 -8 0 -9 -2 -1 -8 10 -6 30 -82 33 -122
0 -8 2 -31 5 -50 3 -19 7 -63 10 -97 4 -35 8 -80 11 -100 2 -21 7 -105 10
-186 3 -81 8 -165 11 -185 7 -42 7 -45 5 -52 -1 -3 -4 -52 -7 -109 -7 -137
-43 -235 -116 -314 -47 -51 -68 -77 -68 -85 0 -4 -8 -15 -17 -23 -10 -9 -38
-40 -63 -69 -25 -30 -51 -58 -58 -64 -7 -6 -24 -21 -37 -34 -13 -12 -29 -22
-35 -22 -5 0 -10 -5 -10 -10 0 -9 -163 -94 -180 -95 -9 0 -100 -100 -101 -110
-2 -27 -8 -49 -16 -54 -5 -3 -10 -20 -11 -38 -4 -41 12 -51 113 -68 17 -3 55
-10 85 -16 130 -24 418 -29 525 -9 91 17 184 59 217 98 14 17 29 49 33 72 4
22 11 42 16 45 5 3 41 -1 82 -9 84 -18 97 -15 184 33 62 34 67 39 90 101 27
71 28 74 73 174 33 76 36 91 18 103 -8 5 -13 34 -14 78 -1 61 -4 89 -18 165
-1 8 -7 24 -12 35 -10 23 -10 191 0 370 4 66 8 140 9 165 1 25 6 51 11 59 6 9
5 12 -1 8 -6 -4 -9 4 -7 21 2 15 6 76 9 135 3 60 7 112 9 115 2 4 5 27 7 52 1
25 7 51 12 58 6 8 5 12 -2 12 -7 0 -9 5 -4 13 4 6 8 26 9 42 0 17 4 59 7 95 4
36 10 97 14 135 8 87 5 162 -7 185 -9 17 -70 46 -70 33 0 -3 -9 6 -20 20 l-20
25 -58 -16 c-58 -16 -81 -34 -82 -63 0 -25 -40 -38 -78 -25 -27 9 -31 14 -20
25 11 11 11 13 0 7 -8 -5 -23 3 -38 19 -29 31 -107 75 -133 75 -21 0 -44 23
-34 33 3 4 1 7 -5 7 -5 0 -16 1 -24 3 -7 2 -34 2 -61 0z"/>
<path d="M1556 2578 c7 -22 7 -68 0 -118 -2 -14 -19 -86 -39 -160 -44 -166
-48 -184 -52 -287 -2 -45 -6 -86 -9 -91 -3 -5 -3 -12 1 -16 4 -3 8 -34 10 -69
3 -56 9 -102 13 -102 1 0 3 -8 5 -19 2 -10 13 -40 24 -67 12 -26 21 -55 21
-63 0 -18 20 -57 34 -67 4 -4 5 -16 2 -27 -4 -11 -3 -23 2 -26 9 -5 25 -67 22
-82 -1 -4 3 -10 9 -13 6 -4 12 -24 13 -44 2 -20 5 -37 8 -37 3 0 6 -8 7 -17 2
-34 12 -78 22 -105 5 -14 15 -52 20 -85 6 -32 14 -71 17 -88 4 -16 7 -62 7
-100 0 -82 -22 -138 -78 -200 -67 -74 -96 -157 -75 -219 20 -61 178 -122 320
-124 83 -1 129 -14 187 -53 23 -16 46 -29 51 -29 5 0 37 -29 72 -64 62 -64
148 -116 191 -116 12 0 44 -13 71 -30 52 -32 102 -39 133 -16 21 15 29 88 13
121 -17 33 -67 73 -129 102 -54 26 -61 33 -93 98 -19 39 -38 82 -41 97 -4 14
-15 34 -26 44 -10 9 -19 21 -19 26 0 5 -26 48 -59 96 -69 103 -93 155 -116
253 -40 172 -47 305 -30 569 5 74 9 150 9 168 0 17 3 32 6 32 8 0 6 67 -2 75
-4 4 -3 15 1 24 5 9 9 129 9 266 1 212 6 396 13 415 1 3 3 12 4 20 7 64 19
121 26 126 31 19 -31 24 -292 24 l-290 0 7 -22z m1014 -2469 c0 -6 -4 -7 -10
-4 -5 3 -10 11 -10 16 0 6 5 7 10 4 6 -3 10 -11 10 -16z"/>
</g>
</svg>
